<?xml version="1.0" encoding="utf-8"?>
<!-- Generator: Adobe Illustrator 27.5.0, SVG Export Plug-In . SVG Version: 6.00 Build 0)  -->
<svg version="1.1" id="Layer_1" xmlns="http://www.w3.org/2000/svg" xmlns:xlink="http://www.w3.org/1999/xlink" x="0px" y="0px"
	 viewBox="0 0 800 800" style="enable-background:new 0 0 800 800;" xml:space="preserve">
<g>
	<polygon points="200.608,727.11 200.709,727.161 203.655,725.688 209.054,723.234 209.821,722.774 210.036,722.743 
		211.999,721.761 212.21,721.34 213.963,720.289 223.289,715.871 225.166,715.005 225.743,714.889 229.67,712.926 229.67,711.944 
		226.234,711.944 222.798,712.435 222.798,712.631 218.871,713.417 219.362,711.453 220.344,711.453 222.307,709.98 
		221.326,708.017 217.89,708.017 211.017,711.453 211.017,715.38 209.054,715.871 207.418,716.634 202.182,718.816 195.801,722.743 
		190.401,725.688 186.965,728.142 182.547,730.106 180.093,731.578 181.075,732.56 185.493,732.56 190.962,730.456 194.328,729.615 
		194.819,729.615 194.889,729.475 196.292,729.124 198.746,728.142 198.782,727.962 	"/>
	<polygon points="253.232,152.359 258.14,151.868 261.576,148.432 266.976,147.451 273.848,144.015 277.284,144.015 
		278.757,143.033 279.248,140.088 277.775,136.652 275.321,135.67 270.903,137.633 266.485,138.124 265.503,137.633 
		263.049,138.124 262.067,141.069 259.122,141.56 256.177,143.524 253.723,145.978 250.777,148.432 246.851,151.868 
		246.851,153.341 251.268,153.341 	"/>
	<polygon points="293.483,130.598 295.446,132.234 299.373,132.234 305.263,129.289 311.154,128.798 311.645,129.289 
		314.59,129.289 318.026,127.325 319.008,125.362 316.553,124.871 313.608,122.417 311.154,122.417 305.754,124.38 301.827,123.889 
		301.827,121.926 303.791,117.508 302.318,117.017 295.937,120.944 293.483,122.907 292.501,125.362 290.047,126.343 
		288.083,128.307 292.01,129.616 	"/>
	<path d="M754.894,362.94l-1.472-0.982l-13.43-1.06l-6.331-0.745l-2.573-0.772l-2.045-1.023l-0.881-0.705l-0.859-1.431l-0.199-1.59
		l0.302-1.51l2.454-1.963h4.909l2.945,0.982l0.378-0.151l0.604,0.151l0.109-0.436l0.382-0.153v0.098l0.421-0.21l0.07,0.21l0.07-0.28
		l0.421-0.21l-0.184-0.736l0.184-0.736l-0.982-0.982l-2.945-1.227l-1.473-0.736l-0.606-0.13l-0.866-0.361h-0.818l-4.581-0.982
		l-7.854-1.963l-10.308-3.436l-12.272-2.945l-3.436-1.473h-6.381l-3.436,0.982l-8.345-0.491l-1.964-0.982l-1.473-2.945v-3.927
		l0.491-0.982l1.473-0.491l1.104-0.552l0.368,0.061l2.454-1.473l0.491-4.418l3.927-1.963l5.89-2.454l4.418-0.491l0.614,0.92
		l0.859,3.007l1.473,1.963l3.436,0.982l0.491,6.381l1.963,0.491l1.964-2.454l-0.982-2.454v-6.381l-1.473-2.454l-5.89-1.571
		l-0.14-0.042l-0.841-0.841l-2.454-0.982l0.491-1.963l1.473-1.473l4.418-1.473h4.418l1.753-1.402l0.21-0.07l2.209-1.841l0.245-0.123
		l3.927-2.454l-0.045-0.015l0.816-0.476h0.21l1.473-0.982l3.436-2.945l4.418-1.473l1.963-2.945l1.963-2.945l0.302-0.831l0.68-1.133
		l0.14-1.122l0.841-2.314l1.473-7.854l1.104-5.154l1.841-5.154l2.454-6.381l7.363-14.235l3.436-4.909l2.454-4.909l2.454-3.927
		l0.049-0.245l0.442-0.736l-0.147-0.736l0.147-0.736l-0.316-0.105l-0.175-0.877l-3.927-3.927l-6.872-2.945l-2.945-2.454
		l-4.418-1.473l-1.963-2.454l0.491-4.418l3.436-3.927l0.491-3.436l-0.982-2.454v-10.308l0.491-4.418l0.491-3.927l-0.491-0.491
		h-7.363l-0.982-0.491l-3.57-2.677l-0.75-1.25l-0.834-2.086l-0.608-2.737l0.188-1.313l1.157-2.7l0.982-1.473l0.982-5.89
		l-0.982-2.945l-2.454-0.982h-5.4l-1.473-1.473v-2.945l0.982-2.454l2.945-3.927l0.491-2.945l-1.963,0.491l-4.418,1.963h-3.436
		l-1.473-1.963l-1.963-4.909l-2.454-4.909l-0.982-5.89l0.982-3.927l1.473-0.982l3.436,0.491l6.069,0.759l3.626,0.837l4.05,1.35
		l2.454,0.491l2.945-1.964l-0.491-3.436l-0.491-3.927l0.982-0.491l4.909-0.491l3.436-5.89l3.927-1.963v-1.963l-0.982-3.436
		l1.963-6.381l0.491-3.927l-0.944-0.755l-0.038-0.227l-2.454-1.963l-2.454-2.454l-1.473-0.982l-0.736-0.123l-0.736-0.368
		l-0.793,0.113l-0.68-0.113l-1.964,0.491l-3.436,2.454l-0.654,0.655l-0.327-0.164l-0.491,0.982l0.491,1.473v2.945l-3.436,0.982
		l-3.927,0.491l-4.418-2.945l-3.436-2.945l-3.436-4.418l-0.491-4.418l-3.927-3.436L695.5,73.33l-2.454-2.454l-4.418-2.945
		l-3.436-1.718l-1.963-1.227h-0.491l-1.963-0.982l-2.454-1.963l-7.363-1.473l-8.836-2.945h-3.436l-2.945-0.491l-3.436-0.491
		l-4.418,1.473h-6.381l-4.909,1.473h-3.927l-3.436-1.473l-4.909-4.418l-4.909-0.491l-2.454-1.473l-3.436-2.945l-7.854-7.854
		l-3.436-0.491l-9.817,0.982l-11.29,2.454l-1.8,0.6l-1.636,0.382l-7.363,0.982l-4.418,0.982h-1.963h-6.872l-2.945,0.491
		l-1.841,0.614l-1.595,0.368l-6.381,2.945l-24.543,5.399l-9.326,1.473l-11.29,1.963l-6.872,1.964l-14.235,2.945l-9.326,1.473
		l-0.771,0.21l-1.683,0.281l-1.595,0.614l-1.35,0.368l-2.856,1.25l-0.58,0.223l-0.491,0.245l-3.927,1.718l-2.127,1.309l-1.309,0.654
		l-0.393,0.393l-2.552,1.571l-3.927,3.927l-5.399,2.945l0.982,0.982l3.436-0.491h3.927l4.712-0.393l2.16-0.098v-0.082l4.909-0.409h0
		l5.89-0.491l9.817-1.963h4.172l1.157,0.21l0.561,0.281l-0.491,2.454l-3.927,2.945l-18.653,8.836l-4.418,1.963l-5.89,3.436
		l-3.927,1.964l-4.254,1.309l-2.618,0.655h-3.927l-0.982-0.982l-4.418-2.945l-2.454-0.491l-7.363,3.436l-4.418,1.963l-9.326,4.418
		l-11.781,3.927l-5.4-0.491l0.982-3.436l2.454-2.945l4.909-1.963l5.4-1.963l6.381-1.963l2.454-1.473l0.982-3.436l0.982-1.473
		l0.491-1.963l-0.982-0.491h-4.418l-3.927,3.927l-7.854,1.473l-5.89,2.945l-3.436,2.945v2.454l-0.491,2.945l-3.436,3.927
		l-5.89,4.418l-19.635,9.326l-6.381,3.927l-2.454,2.945l-5.89,3.927l-1.963,2.454l-6.381,4.418l-5.89,1.963l-4.418,3.436
		l-2.454,3.927l-3.436,0.982l-12.272,0.982l-1.963,0.491l-5.89,2.945l-2.291,1.964l-0.654,0.491l-4.908,3.436l-2.945,1.964
		l-3.927,2.945l-6.872,4.908l-1.16,0.892l-0.803,0.58l-0.701,0.561l-1.262,0.912l-3.436,2.7l-0.982,0.737l-3.436,2.454l-0.382,0.327
		l-2.727,1.636l-5.236,2.945l-4.418,0.491l-9.817,4.909l-4.418,3.927l-6.381,1.473h-3.436v-2.945l0.982-1.473l3.927-3.436
		l7.854-2.945l4.418-2.945l3.927-4.418l0.491-2.454l-7.854,0.982l-1.473-0.982v-3.436l0.982-1.963l2.945-2.454l8.345-4.418
		l0.491-1.963l-1.473-0.982l-7.363-0.982l-5.4,1.473l-7.363,0.982l-7.363,2.454l-9.326,0.982l-6.872,2.454l-10.308,4.909
		l-5.89,2.454l-9.817,4.418l-7.363,3.927l-5.89,1.963l-6.381,4.909l-5.89,4.909l-5.89,5.399l-5.89,3.436l-9.326,5.89l-5.89,5.4
		l-2.945,1.963l-4.909,2.945l-11.29,5.399l-5.89,3.436l-7.854,4.418l-4.909,4.909l-1.963,4.909l-3.436,2.454l-4.418,3.436
		l-3.927,3.436l-2.863,3.272l-4.5,3.6l-0.491,2.454h1.963l2.945-1.473l0.092-0.184l2.362-1.289l4.909-1.963l7.854-4.909l4.909-1.473
		l0.516-0.196l0.957-0.294l3.681-1.473l5.154-1.964l1.472-0.687l1.964-0.785l0.245-0.245l3.681-1.718l9.326-3.927l7.363-1.963
		l11.781-0.982l1.963-0.982l6.381-3.927l2.127-1.8l0.327-0.164l1.606-1.473l2.32-1.964l3.927-3.436l1.473-3.436l2.945-2.945
		l5.737-5.399h0.153l3.415-2.988l2.721-1.512l0.245,0.082l4.909-4.909l2.945-1.473l2.79-1.24l4.006-1.252l2.039-0.453l4.418-1.963
		l4.909-0.982l1.999-0.421l0.456-0.07v-0.026l4.54-0.956l4.151-0.664l8.489-0.808l1.473,1.473v2.945l-0.491,0.982l-3.436,3.436
		l-4.909,3.927l-15.217,10.308l-0.982,2.454h0.982l2.454-1.473l2.945-0.982l-0.491,1.963l-2.945,3.436l-5.399,3.927l-7.363,4.909
		l-8.345,5.399l-2.454,2.945l-7.363,5.399l-0.491,3.436l-2.454,7.363l-2.454,3.927l-2.945,1.963l-8.345,5.4l-10.799,7.363l-5.89,5.4
		l-4.909,2.945l-7.363,4.909l-7.363,5.89l-4.418,3.436l-6.381,4.909l-6.872,6.381l-3.436,3.927L76.03,330.543l-1.473,2.945
		l-4.909,6.381l-4.418,5.399l-3.436,3.927l-2.454,1.963l-1.963,3.436l-0.982,5.4l-2.945,2.945l0.491,1.964l4.909,0.491l2.454-1.963
		l4.418-2.945h3.927l2.454-2.454l4.418-2.454l3.436-0.491l4.909,1.963l-0.491,1.473l-2.945,3.436l-1.227,2.454h-0.245l-0.491,1.473
		l-0.491,6.381l-0.491,0.982v6.872l-0.982,1.963l-3.436,3.436l-1.473,4.418l-3.436,3.927l-0.982,2.454l3.436-0.491h4.418
		l0.982,0.982v2.945H76.03l-4.418,4.909l-1.963,2.945l-3.436,4.418l-0.491,3.436l0.982,3.927l-0.491,3.436l-0.982,0.491
		l-1.473,1.473l0.491,0.982l2.454-1.473l2.945-0.491l-0.491,2.454l-3.436,4.418l-4.418,0.982l-6.872,3.436l-0.491,2.945l11.29-0.982
		l3.436-0.982h4.909l0.491,1.963l-1.473,2.454l-2.945,4.418l-2.945,5.89l-5.4,3.436l-2.945,2.454l0.466,4.663l-0.189,0.63
		l-2.241,4.034l-0.982,2.945l-2.454,3.927l-0.982,2.945l1.963,2.454l0.491,3.436l-2.454,3.927l0.491,2.945l1.473,0.491l0.491,2.454
		V494l-1.473,3.436l0.491,1.473l1.963,0.982l6.381,4.909l0.491,3.436l0.982,5.89l3.436,4.909l2.356,2.356l0.077,0.269l-0.47,3.756
		v6.872l1.473,0.982l2.945,0.785v0.196l4.418,0.982l0.982,1.963v12.272l-1.473,2.454l-0.982,2.454l0.491,0.245v0.245l2.454,0.982
		l0.982,2.454l0.491,8.345l0.491,1.473l2.454,3.927l-0.491,4.909l0.982,1.473l2.454,4.909v3.436l-0.982,2.454l-2.454,2.945
		l-3.436,4.909l-4.418,2.945l-2.454,1.473v2.454l2.945,2.945l-0.491,5.89l-0.491,0.491l-2.945,1.964l-2.454,1.963l-0.982,1.963
		l1.963,0.491l2.945-1.473h3.436l2.454,1.473l2.045,2.045l0.234,1.636l-0.316,2.209l-1.963,2.454l-3.436,4.418l-3.436,3.927
		l0.491,2.454v2.945l-0.491,0.491l-0.982,2.454H70.14l-1.963,2.454l0.982,1.963l6.872,0.982l2.454,2.454h0l0.982,0.982l4.909,0.491
		l0.491,1.963l1.963,0.491l1.963-1.473h7.854l1.963,1.963l-0.491,3.927l-9.326,9.326l-0.491,4.909v4.909l-3.927,2.945l-4.909,4.418
		l-6.381,3.927l-0.491,2.945l2.454,0.982l1.473,0.268v0.223l4.558,0.912l0.841,0.561l4.909,0.982l0.491,0.491l-0.491,1.964
		l-2.454,1.963l-1.473,4.418l2.945,0.982l4.418,3.436l4.418,0.982l0.491,0.491l0.491,2.454l-0.982,1.473l-4.418,2.454l-2.454,2.945
		l0.491,2.454l3.927-0.491l2.454,0.491v4.418l-1.473,2.945l0.491,1.473l1.473,0.491l4.909,3.436l0.818-0.164l0.654,0.164
		l0.368-0.368l0.614-0.123l2.945-2.454l3.927-1.963l6.872-0.982l2.945-0.982h3.436v3.927l-2.454,2.454l-13.744,7.363v0.982
		l0.362,0.103l0.129,0.388l4.909,0.982l1.155-0.144l1.299,0.144l-0.098-0.294l1.571-0.196l5.4-3.927l4.909-3.927l7.363-4.909
		l3.436-3.927l-0.168-1.006l0.168,0.024l-0.323-2.258l1.795-3.142l3.436-2.945l6.381,0.491l0.491,0.491l4.909-0.491v1.473
		l-2.454,3.436l-0.491,1.964l1.963-0.491l-3.436,4.418l-3.927,4.418l-8.261,3.478l-0.084-0.042l-0.433,0.26l-0.549,0.231
		l-0.382,0.327l-1.091,0.654l0.084,0.209l-2.047,1.755l-4.418,2.945l-4.909,3.436l-0.469,0.536l-0.022-0.045l-2.945,3.436v5.89
		l0.982,0.491l0.058-0.231l0.924,0.231l4.418-1.473l1.473-1.473l10.799-4.418l4.418-2.945l2.945-2.454l5.399-3.436l4.418-2.945
		l1.963-2.945l3.436-2.454l1.963-2.454l2.454-1.963l8.836-3.436l5.399-2.454l7.363-5.399h3.927l0.491-0.491l4.418-1.473l3.436-2.945
		l5.89-2.945l1.963-1.473l6.381-4.418l4.418-3.927l3.927-2.945l3.436-1.473l4.499-1.8l4.379-1.347l2.165-0.289h2.209h10.308
		l-0.982,2.454l-4.909,4.418l-3.927,2.454l-3.436,4.909l-2.945,2.454l0.982,0.491l7.854-2.454l5.89-2.454h2.945l1.963,1.473
		l0.491,0.218v0.273l3.866,1.718l-0.43,1.718l-2.945,1.964l-3.681,1.718l-1.718,0.736l0.027,0.053l-1.086,0.507l-0.413-0.069
		l-0.491,0.491l-5.89,2.945h0l-0.982,0.491v0.491l-0.491,0.491l0.491,0.164v0.327l0.529-0.151l0.453,0.151l1.309-0.654l1.145-0.327
		l3.068-1.227l4.295-1.227v0.982l-0.491,2.945l-0.123,0.614l-0.368,0.368l-0.245,2.7l-0.245,1.227h-0.982l-4.712,3.927h-0.196
		l-0.982,0.982l-2.454,1.473l-1.963,0.982l-3.927,2.209l-3.436,1.718l-6.662,3.997l-0.21-0.07l-1.473,0.982l0.02,0.059l-5.91,3.377
		l-3.927,1.963l-0.436,0.273l-0.545,0.218l-0.089,0.179l-1.323,0.827l-0.06-0.024l-9.326,5.89v0.982h0.982l5.935-3.124l5.764-2.767
		h0.082l0.982-0.491l0.073-0.055l0.909-0.436l4.418-2.945l4.261-1.504l0.157,0.031l5.89-1.963l-0.245-0.123l1.031-0.368h0.687
		l0.067-0.27l0.792-0.283l0.123,0.061l5.399-1.963l0.106-0.212l5.013-1.961l0.771-0.281l-0.004-0.02l2.458-0.962l4.909-1.963
		l4.418-0.491l1.963,1.963l1.963,0.491l1.963-2.454l4.909-2.945l3.436-0.491l5.89-0.491l0.491-0.491h0.491l0.491-0.982l0.491-4.909
		l1.402-1.753l2.524-1.683l2.945-1.473l5.236-0.982h0.164l5.442-0.64l6.83-0.341l0.491,0.982l0.491,2.945l-2.524,3.366l-3.366,2.524
		l-4.909,1.963l-3.436,1.963v0.982l3.436,1.473l0.982,0.164v0.327h1.963l2.454-1.473l0.068-0.274l2.582-1.788l3.73-1.865
		l3.151-1.444l0.285-0.029l2.454-1.227l5.891-2.7l0.736-0.382l0.246-0.109l7.854-3.927l0,0l0.982-0.491l0.409-0.327l0.956-0.563
		l2.071-1.074l2.454-1.588l1.472-0.866l0.02-0.099l4.398-2.846l1.104-0.736l1.35-0.736v-0.164l4.909-3.272l2.356-1.914l0.098-0.049
		l0.164-0.164l5.236-4.254l4.418-3.436l2.945-4.418l-0.491-1.473h-1.473l-1.473,1.963l-1.963,0.982l-0.614,0.491l-4.295,2.454
		l-4.909,2.454l-4.418,2.945l-0.327,0.327l-1.963,1.227l-0.164-0.082l-0.491,0.491l-3.272,2.045l-0.164-0.082l-0.491,0.491
		l-2.454,0.982l-2.945,1.473l-3.877,2.467l-0.05-0.013l-1.473,0.982l-0.6,0.491h-0.382l-2.856,2.499l-0.089-0.045l-1.964,1.636
		l-3.436,2.291l-0.123,0.123l-1.35,0.859l-3.436,0.491l0.491-1.963l4.061-3.748l0.357-0.178l0.14-0.281l1.823-1.683l4.909-2.454
		l3.436-3.927l0.245-0.491l2.209-2.945l1.963-5.89l2.945-3.436l4.909-2.945l1.963-1.309l1.963-1.145l4.091-2.454l1.8-0.982
		l4.418-4.418l0.491-0.491l1.473-1.473l4.418-2.454l0.491-1.473h0.982l2.749-0.982h0.196l1.473-0.491l0.982-0.456l1.473-0.526
		l7.118-3.436h0.245l3.927-1.963l0.011-0.056l0.936-0.452l0.034,0.017l0.67-0.357l1.294-0.625l5.4-2.945v-0.231l2.349-1.382
		l3.394-1.234l3.42-1.08h0.164l1.473-0.491l0.307-0.123l1.166-0.368l9.597-3.91l1.693-0.508l-0.169-0.113l2.133-0.869l6.381-1.473
		l10.308-4.909l1.386-0.52l0.087,0.029l6.381-2.454h7.854l2.945,0.491h9.817l3.436,0.491l2.945,0.982l1.964,1.963l1.071,0.893
		l0.892,1.071l0.517,0.103l0.465,0.388l0.803-0.134l0.669,0.134l0.736-0.368l0.736-0.123l0.982-0.736l0.491-0.245l0.491-0.491
		l1.964-1.473l6.381-2.454l5.399-0.982l0.67-0.419l0.311-0.072l1.375-0.982l1.571-0.982l3.928-2.946l2.698-1.963l2.209-1.473v-0.134
		l0.491-0.357l5.61-2.805l1.59-0.468l4.581-1.145l0.543-0.362l0.439-0.129v-0.164l0.491-0.327l1.473-2.454l2.454-2.454l-0.109-0.036
		l0.354-0.414l0.245-0.041l2.142-2.499l1.496-1.197l2.112-0.792l4.558-1.402h3.436h2.454l0.409-0.409l0.573-0.082l1.753-1.578
		l0.21,0.105l1.964-1.964l0.024-0.12l0.958-0.862l2.454-1.636l1.473-0.818v-0.164l0.491-0.327l2.454-0.982l1.964-0.491l0.316-0.421
		l0.175-0.07l0.327-0.6l0.655-0.873l-0.042-0.251l2.005-3.676l4.909-2.454l4.62-3.234l5.197-2.166l2.454-0.982l3.109-1.636
		l2.782-1.309l2.104-1.262l1.332-0.701l0.07-0.14l0.584-0.351h0.327l5.399-3.436l9.817-2.454l0.982-0.491l0,0l0.982-0.491l0,0
		l0.982-0.491h0h0l1.963-0.982l4.909-3.436l4.909-3.156l3.927-2.244l4.172-2.086l5.154-0.859v-0.159l12.272-1.805v-0.196
		l6.381-1.276h5.399l6.872-0.491l5.399-1.473l3.436-1.963l5.399-1.963l8.345-0.491l1.964-0.491h8.345l1.473-3.927l0,0l2.182-1.309
		l4.2-1.145h3.436l1.963,0.491l4.909,0.982l4.418-2.454l7.854-0.982l3.6-0.491h0.327l0.473-0.109l6.399-0.873l3.436-0.982
		l0.491-1.963l-2.945-0.982h-11.29l-13.744-0.491l-5.399,0.982h-4.909l-3.436-0.491l-0.295-0.884l0.785-1.571l0.07-0.421
		l0.421-0.561l-0.179-0.892l0.179-1.071l-0.491-0.491l0,0l-0.669-1.116l-0.803-2.811l0.982-2.454l5.399-3.927v-1.473H690.1
		l-5.89,1.473l-2.454,1.473h-3.927v-0.982v-1.473l1.473-1.473l3.481-1.874l2.41-1.071l-0.089-0.179l0.58-0.312l0.491-1.963
		l-1.963-1.963l-2.454-0.491l-1.963,0.982h-3.436l-6.381-0.982l-1.963-1.473l-0.982-2.454l1.473-2.454l5.89-3.436l3.436-1.473
		l2.454-1.473l1.473-2.945l-0.491-0.982l-2.945-0.982v-2.945l-2.454-3.927l-3.436-1.963l-1.964-1.963l0.491-1.963l2.454-0.982
		l1.473-1.963l0.491-1.963h-1.964l-2.945-0.491l-0.462-2.31l2.425-1.617l0,0l7.527-2.291l2.29-0.654l0.025-0.05l1.447-0.441
		l4.909-2.945h3.927l0.982,0.491h1.473h1.473l2.945-2.945l5.399-1.963l2.417-0.906l0.529-0.076l-0.14-0.07l1.122-0.421l1.473-1.473
		l0.078-0.388l0.904-1.085l2.454-1.473l5.89-0.982l1.473-0.491l0.327-0.327l3.6-1.636l1.472-1.473l-6.872-0.491l-2.945-1.963
		l-16.198-0.982l-0.491-1.963l0.982-1.473l4.909-2.945l6.872-1.963l2.454-1.473l3.927-3.436l1.403-1.963h0.07l0.368-0.614
		l0.614-0.859l0.058-0.26l0.433-0.722l-0.223-0.223l0.071-0.319l0.152,0.051l0.491-2.945l1.473-2.945l-0.491-0.736v-0.245
		l-0.982-1.963l-0.654-1.963l-0.818-4.909l-0.982-0.491h-6.381l-2.945-1.473l-0.982-1.963l-0.393-0.098l-1.571-2.356l-2.577-1.104
		l-1.104-1.104l-0.245-0.736l3.436-2.945l0.029-0.087l0.462-0.404v-0.491v-0.491l0.491-1.473l0.982-0.491l5.89-1.473l11.29-1.963
		l5.89-1.963l1.963-4.712l1.74-2.785l2.187-2.811l1.963-2.454l0.982-1.473l1.473-1.963l0.745-0.88l0.237-0.102l4.418-5.399l5.4-5.89
		l1.963-2.945L754.894,362.94z M283.665,691.328l-3.927,2.945l-4.783,0.478l0.365-1.46l1.473-1.473l0.736-1.104l0.736-0.859
		l-0.07-0.14l0.561-0.842l1.508-1.76l4.873-2.658l-0.355-0.236l0.477-0.255h0.859l2.945-1.473l0.136-0.273l1.076-0.391l2.223-0.318
		l0.137-0.059l2.808-0.432l-0.491,1.963l-1.964,1.964l-5.399,3.927l-3.72,2.558L283.665,691.328z M217.399,683.965h0.491
		l0.736-0.491h0.245l2.945-1.964l2.945-1.473l7.363-0.982l4.418,0.491l-0.491,1.964l-2.454,1.963v0.982l-1.473,0.491l-4.418,0.491
		h-1.963l-0.859,0.859l-0.123-0.368l-0.561,0.841l-3.857,2.104l-3.927,0.491l-2.454-1.963L217.399,683.965z M689.119,466.512
		l-3.731,1.178l-1.178,0.294l-1.62,0.589l-1.406,0.444l-0.41-0.051l-0.982,0.491l0,0l-4.295,0.859l-0.602,0.067l0.454-2.269
		l3.953-3.074l5.89-1.473l3.172,0.453l0.264,0.529h0.982l0.491,1.963H689.119z M210.527,688.382l-3.436,1.963l-5.89,3.927
		l-5.89,2.945l-2.945,0.491l0.491-2.945l3.436-2.945l7.363-3.436l3.829-1.473h1.571l0.982-0.982h1.473l0.491,1.473L210.527,688.382z
		"/>
	<polygon points="745.077,430.679 743.114,431.661 739.187,434.606 733.787,438.042 733.787,440.496 734.769,440.987 
		741.15,440.496 741.936,440.005 742.132,440.005 742.95,439.515 743.114,439.515 743.768,439.024 744.586,438.533 744.615,438.388 
		745.077,438.042 747.531,434.115 747.041,431.17 	"/>
	<polygon points="329.806,116.035 330.788,114.563 333.243,112.599 333.243,111.127 327.843,109.654 325.389,111.127 
		328.334,116.035 	"/>
	<polygon points="360.731,101.8 361.713,100.819 361.222,98.855 358.277,98.855 352.386,101.309 352.386,102.291 357.295,102.291 	
		"/>
	<polygon points="322.934,112.108 322.934,111.127 319.989,110.636 317.535,111.127 314.099,113.09 313.117,115.054 
		318.517,114.072 	"/>
	<polygon points="718.08,462.585 715.625,465.039 717.589,465.53 723.479,462.094 723.479,461.113 721.025,461.113 	"/>
	<polygon points="50.014,440.005 45.596,442.951 44.615,444.914 48.542,443.932 50.996,441.969 51.978,440.005 	"/>
	<polygon points="719.061,140.579 720.043,140.579 722.007,139.106 722.497,136.652 721.025,136.652 719.552,138.124 	"/>
	<polygon points="81.429,660.894 82.411,658.931 80.448,658.931 79.466,659.421 78.484,661.385 80.448,661.876 	"/>
	<polygon points="439.269,664.821 440.742,665.312 441.233,663.348 439.76,663.348 	"/>
	<polygon points="440.742,647.641 438.778,647.15 438.287,648.622 439.76,648.622 	"/>
	<polygon points="687.155,490.564 687.155,492.037 688.628,491.546 689.119,490.073 688.137,490.073 	"/>
	<polygon points="738.696,175.921 740.169,176.412 740.659,175.43 739.187,174.939 	"/>
	<polygon points="736.733,178.375 738.205,177.393 737.223,176.902 	"/>
	<polygon points="359.749,117.508 358.277,117.017 358.277,117.508 	"/>
</g>
</svg>
